#!OML:ASF F:\VICON\USERDATA\INSTALL\rory3\rory3.ASF
:FULLY-SPECIFIED
:DEGREES
418
root 0.0948503 17.6791 46.5893 -2.02293 0.526174 2.19365
lowerback 10.0309 -0.711469 -4.00602
upperback 0.983244 -1.33224 1.18353
thorax -4.4809 -0.575229 3.67719
lowerneck -16.78 -2.78826 -3.443
upperneck 19.3941 -3.48189 2.36088
head 8.95145 -1.63323 0.935646
rclavicle -8.62228e-015 7.95139e-016
rhumerus -31.516 -13.7581 -82.478
rradius 29.6392
rwrist 4.03707
rhand -18.9873 23.179
rfingers 7.12502
rthumb 7.3174 -6.67449
lclavicle -8.62228e-015 7.95139e-016
lhumerus -20.0927 -5.05641 80.5333
lradius 31.8064
lwrist 9.69516
lhand -29.2888 19.3868
lfingers 7.12502
lthumb -2.63064 49.3503
rfemur -29.429 5.13253 16.6162
rtibia 20.0662
rfoot -10.3156 -18.8968
rtoes 0.491694
lfemur 8.73997 -1.49314 -27.2702
ltibia 17.0333
lfoot -17.4434 0.161602
ltoes 1.7486
419
root 0.0835686 17.6593 46.764 -2.06957 0.687928 2.5405
lowerback 9.9477 -0.777325 -4.40348
upperback 1.19625 -1.45821 1.14871
thorax -4.19076 -0.642596 3.87612
lowerneck -16.6878 -2.50739 -3.11956
upperneck 18.9746 -3.09687 2.02473
head 8.76748 -1.46635 0.818371
rclavicle -6.26172e-015 -2.78299e-015
rhumerus -31.3949 -13.8518 -82.5011
rradius 29.4332
rwrist 4.3047
rhand -19.1831 23.7173
rfingers 7.12502
rthumb 7.12844 -6.1427
lclavicle -6.26172e-015 -2.78299e-015
lhumerus -19.4049 -4.8924 80.4807
lradius 32.0089
lwrist 9.8406
lhand -29.2558 19.474
lfingers 7.12502
lthumb -2.59876 49.4379
rfemur -29.1024 6.35424 15.5781
rtibia 17.8232
rfoot -11.1924 -19.1655
rtoes -0.770625
lfemur 9.73669 -1.56449 -27.6354
ltibia 16.4573
lfoot -17.4631 0.156814
ltoes 1.49753
420
root 0.067189 17.6435 46.9435 -2.15904 0.721821 2.33986
lowerback 10.4426 -0.810159 -4.18504
upperback 0.865876 -1.50312 1.16336
thorax -4.81426 -0.645323 3.79415
lowerneck -16.4028 -2.66016 -3.24251
upperneck 19.2621 -3.33478 2.2155
head 8.82664 -1.56876 0.876038
rclavicle 7.95139e-016 -2.38542e-015
rhumerus -32.2855 -13.9887 -82.3542
rradius 29.1831
rwrist 4.71181
rhand -19.1388 24.6313
rfingers 7.12502
rthumb 7.17118 -5.22724
lclavicle 7.95139e-016 -2.38542e-015
lhumerus -19.7352 -5.21574 80.396
lradius 32.2659
lwrist 10.0741
lhand -28.8366 19.9751
lfingers 7.12502
lthumb -2.19389 49.9436
rfemur -28.5421 7.44279 15.3943
rtibia 15.8326
rfoot -12.2324 -19.2791
rtoes -1.56869
lfemur 10.5601 -1.87047 -27.4581
ltibia 16.3602
lfoot -17.568 0.439897
ltoes 1.04303
421
root 0.0553558 17.6274 47.1217 -2.29941 0.85052 1.89041
lowerback 10.8221 -0.921789 -3.74443
upperback 0.618185 -1.60844 1.32266
thorax -5.28439 -0.688474 3.74388
lowerneck -15.7828 -2.7322 -3.54839
upperneck 19.1852 -3.44053 2.50439
head 8.70248 -1.61577 1.01798
rclavicle -1.9133e-015 -1.35174e-014
rhumerus -33.0552 -13.8163 -82.165
rradius 28.9737
rwrist 4.85743
rhand -18.9726 24.6589
rfingers 7.12502
rthumb 7.3316 -5.19411
lclavicle -1.9133e-015 -1.35174e-014
lhumerus -19.9499 -5.17377 80.3591
lradius 32.2867
lwrist 9.82015
lhand -29.438 19.731
lfingers 7.12502
lthumb -2.7747 49.6927
rfemur -27.9801 7.80621 15.7895
rtibia 14.5836
rfoot -13.0732 -18.9608
rtoes -5.14816
lfemur 11.4811 -2.19359 -26.9707
ltibia 16.1336
lfoot -17.6347 0.30093
ltoes 1.19565
422
root 0.0380738 17.6005 47.3023 -2.0368 0.842528 2.26405
lowerback 10.5266 -0.937527 -4.25085
upperback 0.783987 -1.67733 1.3089
thorax -4.92449 -0.724018 4.01326
lowerneck -16.6605 -2.58792 -3.23147
upperneck 19.5531 -3.19152 2.02097
head 8.9655 -1.51972 0.82299
rclavicle 9.24349e-015 5.1684e-015
rhumerus -32.6994 -13.8154 -82.2146
rradius 28.6506
rwrist 4.96951
rhand -19.0977 24.4816
rfingers 7.12502
rthumb 7.21083 -5.37557
lclavicle 9.24349e-015 5.1684e-015
lhumerus -19.2301 -4.91685 80.3051
lradius 32.3605
lwrist 9.66515
lhand -31.0615 19.7238
lfingers 7.12502
lthumb -4.34255 49.6593
rfemur -28.2989 7.30384 15.6679
rtibia 14.3046
rfoot -13.7349 -18.2508
rtoes -2.17791
lfemur 11.9602 -2.35769 -27.3285
ltibia 15.8414
lfoot -17.5179 0.0485535
ltoes 1.75846
423
root 0.0171805 17.5712 47.4948 -2.06368 0.847842 2.09131
lowerback 10.4312 -0.945706 -4.13565
upperback 0.750606 -1.6656 1.41878
thorax -4.90732 -0.71956 4.05974
lowerneck -16.204 -2.48796 -3.34463
upperneck 19.3838 -3.03373 2.01281
head 8.82184 -1.45858 0.863612
rclavicle -1.56046e-014 -3.18055e-015
rhumerus -33.0654 -14.1191 -81.9405
rradius 28.4291
rwrist 5.17686
rhand -19.0301 24.3019
rfingers 7.12502
rthumb 7.27611 -5.55299
lclavicle -1.56046e-014 -3.18055e-015
lhumerus -19.1154 -4.5991 80.4207
lradius 32.3891
lwrist 9.34138
lhand -31.8569 19.3441
lfingers 7.12502
lthumb -5.11053 49.2624
rfemur -28.6257 7.28388 16.0696
rtibia 15.0524
rfoot -14.9894 -17.9244
rtoes 1.96592
lfemur 12.9337 -2.35175 -27.0336
ltibia 15.4689
lfoot -17.6734 0.20249
ltoes -2.77777
424
root 0.0130187 17.5395 47.6831 -2.12229 1.11218 2.30372
lowerback 10.9571 -0.992483 -4.01418
upperback 0.364956 -1.7486 1.24776
thorax -5.60916 -0.738477 3.84844
lowerneck -15.9112 -2.5756 -3.2739
upperneck 19.6943 -3.16734 1.91149
head 8.87592 -1.52942 0.803436
rclavicle 1.81391e-015 -9.54166e-015
rhumerus -34.0529 -14.5523 -81.5835
rradius 28.2407
rwrist 5.41802
rhand -18.738 24.3192
rfingers 7.12502
rthumb 7.558 -5.52572
lclavicle 1.81391e-015 -9.54166e-015
lhumerus -19.5459 -4.78712 80.4638
lradius 32.5737
lwrist 9.24991
lhand -31.8135 19.5852
lfingers 7.12502
lthumb -5.06867 49.5045
rfemur -28.8032 4.84672 16.8013
rtibia 15.881
rfoot -13.2553 -15.6204
rtoes -0.060655
lfemur 13.6633 -2.62134 -27.2677
ltibia 15.6896
lfoot -17.9911 0.622602
ltoes -8.56166
425
root 0.0194594 17.5165 47.8539 -1.98661 1.40165 3.07723
lowerback 10.0764 -1.10623 -4.48666
upperback 0.861934 -1.92481 0.968914
thorax -4.5705 -0.856236 3.80591
lowerneck -16.0389 -2.60592 -3.21275
upperneck 19.2321 -3.20919 1.90259
head 8.74095 -1.54421 0.784606
rclavicle 1.36664e-014 -5.96354e-015
rhumerus -33.3278 -14.9007 -81.719
rradius 27.8505
rwrist 5.58257
rhand -18.7508 24.0577
rfingers 7.12502
rthumb 7.54568 -5.78771
lclavicle 1.36664e-014 -5.96354e-015
lhumerus -18.5236 -4.63339 80.3559
lradius 32.5201
lwrist 9.26158
lhand -31.6599 19.5062
lfingers 7.12502
lthumb -4.92033 49.4291
rfemur -29.0456 2.15629 17.0133
rtibia 16.7331
rfoot -11.0199 -13.3065
rtoes -4.67695
lfemur 13.9027 -3.19353 -28.244
ltibia 16.2828
lfoot -18.0571 0.452893
ltoes -8.63619
426
root -0.0319268 17.5034 48.0437 -1.94583 0.600533 2.12573
lowerback 10.2933 -0.857984 -4.05374
upperback 0.6478 -1.54039 1.32525
thorax -4.9554 -0.657293 3.89524
lowerneck -16.2196 -2.56694 -3.19004
upperneck 19.6287 -3.17965 1.97602
head 8.90943 -1.51943 0.80685
rclavicle -2.85256e-014 1.15295e-014
rhumerus -33.7109 -15.3667 -81.4589
rradius 27.4509
rwrist 6.06094
rhand -18.7306 23.4096
rfingers 7.12502
rthumb 7.56523 -6.43511
lclavicle -2.85256e-014 1.15295e-014
lhumerus -18.6596 -4.59188 80.3739
lradius 32.4668
lwrist 9.19809
lhand -31.8987 19.0407
lfingers 7.12502
lthumb -5.15087 48.9581
rfemur -29.5776 2.91987 18.6181
rtibia 18.2465
rfoot -10.0287 -13.4043
rtoes -4.32934
lfemur 14.2186 -3.10085 -27.0892
ltibia 16.7414
lfoot -17.9617 0.12031
ltoes -7.31937
